<?xml version="1.0" encoding="UTF-8"?>
<svg xmlns="http://www.w3.org/2000/svg" xmlns:xlink="http://www.w3.org/1999/xlink" width="20pt" height="20pt" viewBox="0 0 20 20" version="1.1">
<g id="surface1">
<path style=" stroke:none;fill-rule:evenodd;fill:rgb(0%,0%,0%);fill-opacity:1;" d="M 10.996094 17.035156 L 8.121094 18.632812 L 8.117188 18.632812 C 8.058594 18.664062 7.988281 18.675781 7.921875 18.664062 C 7.910156 18.664062 7.902344 18.660156 7.890625 18.660156 L 7.886719 18.65625 L 7.875 18.652344 C 7.855469 18.644531 7.839844 18.636719 7.820312 18.632812 L 0.160156 14.40625 C 0.132812 14.382812 0.0976562 14.363281 0.0742188 14.335938 C 0.0078125 14.261719 0.015625 14.230469 0 14.136719 L 0.0195312 5.84375 L 0.0234375 5.835938 C 0.0234375 5.8125 0.0273438 5.785156 0.03125 5.757812 C 0.0546875 5.683594 0.0742188 5.640625 0.179688 5.574219 L 7.820312 1.371094 C 7.859375 1.351562 7.875 1.332031 7.976562 1.332031 C 8.007812 1.328125 8.019531 1.332031 8.035156 1.332031 C 8.089844 1.339844 8.101562 1.347656 8.152344 1.371094 L 12.308594 3.710938 L 12.152344 3.390625 C 11.980469 3.039062 12.117188 2.621094 12.460938 2.4375 L 13.082031 2.109375 C 13.148438 2.074219 13.195312 2.011719 13.207031 1.9375 L 13.328125 1.246094 C 13.394531 0.863281 13.75 0.605469 14.136719 0.660156 L 14.832031 0.757812 C 14.90625 0.769531 14.980469 0.742188 15.035156 0.691406 L 15.539062 0.203125 C 15.820312 -0.0664062 16.257812 -0.0664062 16.539062 0.203125 L 17.042969 0.691406 C 17.097656 0.742188 17.171875 0.769531 17.246094 0.757812 L 17.941406 0.660156 C 18.328125 0.605469 18.683594 0.863281 18.75 1.246094 L 18.871094 1.9375 C 18.886719 2.011719 18.929688 2.074219 18.996094 2.109375 L 19.617188 2.4375 C 19.960938 2.621094 20.097656 3.039062 19.925781 3.390625 L 19.617188 4.019531 C 19.585938 4.089844 19.585938 4.167969 19.617188 4.234375 L 19.925781 4.863281 C 20.097656 5.214844 19.960938 5.632812 19.617188 5.816406 L 18.996094 6.144531 C 18.929688 6.179688 18.886719 6.242188 18.871094 6.316406 L 18.75 7.007812 C 18.683594 7.390625 18.328125 7.652344 17.941406 7.597656 L 17.246094 7.496094 C 17.171875 7.488281 17.097656 7.511719 17.042969 7.5625 L 16.539062 8.050781 C 16.398438 8.1875 16.21875 8.253906 16.039062 8.253906 C 16 8.253906 15.960938 8.25 15.921875 8.246094 L 15.921875 10.714844 C 16.945312 10.84375 17.894531 11.304688 18.636719 12.042969 C 19.515625 12.925781 20 14.09375 20 15.339844 C 20 16.585938 19.515625 17.753906 18.636719 18.636719 C 17.753906 19.515625 16.585938 20 15.339844 20 C 14.09375 20 12.925781 19.515625 12.042969 18.636719 C 11.582031 18.171875 11.226562 17.628906 10.996094 17.035156 Z M 15.339844 11.261719 C 13.089844 11.261719 11.261719 13.089844 11.261719 15.339844 C 11.261719 17.589844 13.089844 19.417969 15.339844 19.417969 C 17.589844 19.417969 19.417969 17.589844 19.417969 15.339844 C 19.417969 13.089844 17.589844 11.261719 15.339844 11.261719 Z M 15.339844 15.046875 C 14.9375 15.046875 14.613281 14.722656 14.613281 14.320312 C 14.613281 13.917969 14.9375 13.59375 15.339844 13.59375 C 15.742188 13.59375 16.066406 13.917969 16.066406 14.320312 C 16.066406 14.480469 16.199219 14.613281 16.359375 14.613281 C 16.519531 14.613281 16.652344 14.480469 16.652344 14.320312 C 16.652344 13.699219 16.214844 13.175781 15.632812 13.042969 L 15.632812 12.71875 C 15.632812 12.558594 15.5 12.425781 15.339844 12.425781 C 15.179688 12.425781 15.046875 12.558594 15.046875 12.71875 L 15.046875 13.042969 C 14.464844 13.175781 14.03125 13.699219 14.03125 14.320312 C 14.03125 15.042969 14.617188 15.632812 15.339844 15.632812 C 15.742188 15.632812 16.066406 15.957031 16.066406 16.359375 C 16.066406 16.761719 15.742188 17.085938 15.339844 17.085938 C 14.9375 17.085938 14.613281 16.761719 14.613281 16.359375 C 14.613281 16.199219 14.480469 16.066406 14.320312 16.066406 C 14.160156 16.066406 14.03125 16.199219 14.03125 16.359375 C 14.03125 16.980469 14.464844 17.503906 15.046875 17.636719 L 15.046875 17.960938 C 15.046875 18.121094 15.179688 18.253906 15.339844 18.253906 C 15.5 18.253906 15.632812 18.121094 15.632812 17.960938 L 15.632812 17.636719 C 16.214844 17.503906 16.652344 16.980469 16.652344 16.359375 C 16.652344 15.636719 16.0625 15.046875 15.339844 15.046875 Z M 0.617188 13.953125 L 7.664062 17.839844 L 7.664062 10.175781 L 0.636719 6.363281 C 0.628906 8.894531 0.625 11.421875 0.617188 13.953125 Z M 15.304688 10.679688 L 15.304688 7.824219 L 15.035156 7.5625 C 14.980469 7.511719 14.90625 7.488281 14.832031 7.496094 L 14.136719 7.597656 C 14.101562 7.601562 14.070312 7.601562 14.035156 7.601562 C 13.824219 7.601562 13.628906 7.511719 13.496094 7.359375 L 8.277344 10.230469 L 8.277344 17.835938 L 10.808594 16.433594 C 10.722656 16.078125 10.679688 15.710938 10.679688 15.339844 C 10.679688 14.09375 11.164062 12.925781 12.042969 12.042969 C 12.917969 11.171875 14.074219 10.691406 15.304688 10.679688 Z M 12.375 4.410156 L 11.800781 4.089844 L 4.820312 7.929688 L 8.023438 9.667969 L 13.289062 6.773438 L 13.207031 6.316406 C 13.195312 6.242188 13.148438 6.179688 13.082031 6.144531 L 12.460938 5.816406 C 12.117188 5.632812 11.980469 5.214844 12.152344 4.863281 Z M 19.394531 5.394531 L 18.773438 5.722656 C 18.578125 5.828125 18.441406 6.015625 18.402344 6.234375 L 18.28125 6.925781 C 18.257812 7.054688 18.140625 7.144531 18.007812 7.125 L 17.3125 7.027344 C 17.09375 6.996094 16.875 7.066406 16.710938 7.222656 L 16.207031 7.707031 C 16.113281 7.800781 15.964844 7.800781 15.871094 7.707031 L 15.367188 7.222656 C 15.230469 7.089844 15.054688 7.019531 14.867188 7.019531 C 14.835938 7.019531 14.800781 7.019531 14.765625 7.027344 L 14.070312 7.125 C 13.941406 7.144531 13.820312 7.054688 13.796875 6.925781 L 13.675781 6.234375 C 13.636719 6.015625 13.503906 5.828125 13.304688 5.722656 L 12.6875 5.394531 C 12.570312 5.332031 12.523438 5.191406 12.582031 5.074219 L 12.890625 4.445312 C 12.988281 4.242188 12.988281 4.011719 12.890625 3.8125 L 12.582031 3.179688 C 12.523438 3.0625 12.570312 2.921875 12.6875 2.859375 L 13.304688 2.53125 C 13.503906 2.425781 13.636719 2.238281 13.675781 2.019531 L 13.796875 1.328125 C 13.820312 1.199219 13.941406 1.113281 14.070312 1.128906 L 14.765625 1.226562 C 14.988281 1.257812 15.207031 1.1875 15.367188 1.03125 L 15.871094 0.546875 C 15.964844 0.453125 16.113281 0.453125 16.207031 0.546875 L 16.710938 1.03125 C 16.875 1.1875 17.09375 1.257812 17.3125 1.226562 L 18.007812 1.128906 C 18.136719 1.113281 18.257812 1.199219 18.28125 1.328125 L 18.402344 2.019531 C 18.441406 2.238281 18.578125 2.425781 18.773438 2.53125 L 19.394531 2.859375 C 19.511719 2.921875 19.554688 3.0625 19.5 3.179688 L 19.191406 3.8125 C 19.09375 4.011719 19.09375 4.242188 19.191406 4.445312 L 19.5 5.074219 C 19.554688 5.191406 19.511719 5.332031 19.394531 5.394531 Z M 0.972656 5.84375 L 4.175781 7.582031 L 11.160156 3.738281 L 7.984375 1.984375 Z M 16.992188 4.523438 C 16.511719 4.523438 16.117188 4.914062 16.117188 5.398438 C 16.117188 5.878906 16.511719 6.269531 16.992188 6.269531 C 17.472656 6.269531 17.863281 5.878906 17.863281 5.398438 C 17.863281 4.914062 17.472656 4.523438 16.992188 4.523438 Z M 17.777344 2.386719 C 17.6875 2.296875 17.535156 2.296875 17.441406 2.386719 L 14.300781 5.53125 C 14.207031 5.621094 14.207031 5.773438 14.300781 5.867188 C 14.347656 5.914062 14.40625 5.9375 14.46875 5.9375 C 14.53125 5.9375 14.589844 5.914062 14.636719 5.867188 L 17.777344 2.726562 C 17.871094 2.632812 17.871094 2.480469 17.777344 2.386719 Z M 16.992188 5.792969 C 16.773438 5.792969 16.59375 5.617188 16.59375 5.398438 C 16.59375 5.179688 16.773438 5 16.992188 5 C 17.210938 5 17.386719 5.179688 17.386719 5.398438 C 17.386719 5.617188 17.210938 5.792969 16.992188 5.792969 Z M 15.085938 1.984375 C 14.605469 1.984375 14.214844 2.375 14.214844 2.859375 C 14.214844 3.339844 14.605469 3.730469 15.085938 3.730469 C 15.570312 3.730469 15.960938 3.339844 15.960938 2.859375 C 15.960938 2.375 15.570312 1.984375 15.085938 1.984375 Z M 15.085938 3.253906 C 14.867188 3.253906 14.691406 3.078125 14.691406 2.859375 C 14.691406 2.640625 14.867188 2.460938 15.085938 2.460938 C 15.304688 2.460938 15.484375 2.640625 15.484375 2.859375 C 15.484375 3.078125 15.304688 3.253906 15.085938 3.253906 Z M 15.085938 3.253906 "/>
</g>
</svg>
