<?xml version="1.0" encoding="UTF-8"?>
<svg xmlns="http://www.w3.org/2000/svg" xmlns:xlink="http://www.w3.org/1999/xlink" width="20pt" height="20pt" viewBox="0 0 20 20" version="1.1">
<g id="surface1">
<path style=" stroke:none;fill-rule:nonzero;fill:rgb(0%,0%,0%);fill-opacity:1;" d="M 19.878906 16.34375 L 17.503906 13.976562 L 18.667969 12.816406 C 18.769531 12.714844 18.8125 12.570312 18.777344 12.429688 C 18.746094 12.292969 18.644531 12.179688 18.507812 12.136719 L 11.515625 9.816406 C 11.367188 9.765625 11.207031 9.804688 11.09375 9.914062 C 10.984375 10.023438 10.945312 10.1875 10.996094 10.335938 L 13.324219 17.296875 C 13.371094 17.433594 13.484375 17.535156 13.621094 17.566406 C 13.761719 17.597656 13.90625 17.558594 14.007812 17.457031 L 15.171875 16.296875 L 17.550781 18.664062 C 17.628906 18.742188 17.734375 18.785156 17.839844 18.785156 C 17.945312 18.785156 18.050781 18.742188 18.132812 18.664062 L 19.878906 16.921875 C 20.039062 16.761719 20.039062 16.503906 19.878906 16.34375 Z M 17.839844 17.792969 L 15.464844 15.425781 C 15.304688 15.265625 15.042969 15.265625 14.882812 15.425781 L 13.898438 16.40625 L 12.039062 10.851562 L 17.613281 12.703125 L 16.628906 13.6875 C 16.46875 13.847656 16.46875 14.105469 16.628906 14.265625 L 19.003906 16.632812 Z M 9.660156 7.347656 C 9.652344 7.371094 9.640625 7.386719 9.625 7.398438 C 9.609375 7.414062 9.589844 7.421875 9.5625 7.433594 C 9.539062 7.441406 9.503906 7.445312 9.46875 7.449219 C 9.429688 7.453125 9.378906 7.457031 9.320312 7.457031 C 9.246094 7.457031 9.1875 7.453125 9.140625 7.445312 C 9.09375 7.441406 9.058594 7.429688 9.03125 7.417969 C 9.007812 7.402344 8.996094 7.386719 8.992188 7.367188 C 8.988281 7.347656 8.992188 7.320312 9.003906 7.292969 L 10.613281 3.167969 C 10.621094 3.144531 10.632812 3.128906 10.648438 3.113281 C 10.660156 3.101562 10.679688 3.089844 10.707031 3.082031 C 10.730469 3.074219 10.765625 3.066406 10.804688 3.0625 C 10.84375 3.058594 10.894531 3.054688 10.949219 3.054688 C 11.027344 3.054688 11.085938 3.058594 11.132812 3.066406 C 11.179688 3.074219 11.214844 3.082031 11.238281 3.097656 C 11.261719 3.109375 11.273438 3.125 11.277344 3.144531 C 11.28125 3.167969 11.277344 3.191406 11.269531 3.21875 Z M 8.8125 6.007812 C 8.8125 6.132812 8.785156 6.242188 8.734375 6.339844 C 8.683594 6.433594 8.609375 6.511719 8.515625 6.578125 C 8.421875 6.640625 8.3125 6.6875 8.183594 6.71875 C 8.058594 6.753906 7.917969 6.769531 7.769531 6.769531 C 7.679688 6.769531 7.59375 6.761719 7.511719 6.75 C 7.429688 6.738281 7.359375 6.722656 7.292969 6.703125 C 7.226562 6.683594 7.175781 6.664062 7.132812 6.644531 C 7.089844 6.625 7.058594 6.605469 7.035156 6.589844 C 7.015625 6.574219 7 6.546875 6.992188 6.507812 C 6.980469 6.472656 6.976562 6.417969 6.976562 6.34375 C 6.976562 6.296875 6.976562 6.261719 6.980469 6.230469 C 6.984375 6.203125 6.988281 6.179688 6.996094 6.164062 C 7.003906 6.144531 7.011719 6.132812 7.023438 6.128906 C 7.035156 6.121094 7.046875 6.121094 7.0625 6.121094 C 7.082031 6.121094 7.113281 6.128906 7.152344 6.148438 C 7.191406 6.171875 7.238281 6.191406 7.296875 6.21875 C 7.351562 6.242188 7.421875 6.265625 7.496094 6.285156 C 7.574219 6.308594 7.660156 6.320312 7.757812 6.320312 C 7.816406 6.320312 7.871094 6.3125 7.917969 6.300781 C 7.96875 6.289062 8.007812 6.273438 8.042969 6.253906 C 8.078125 6.230469 8.105469 6.203125 8.125 6.171875 C 8.140625 6.136719 8.148438 6.101562 8.148438 6.058594 C 8.148438 6.007812 8.132812 5.964844 8.101562 5.929688 C 8.066406 5.894531 8.023438 5.867188 7.96875 5.839844 C 7.914062 5.8125 7.851562 5.789062 7.78125 5.765625 C 7.714844 5.742188 7.640625 5.71875 7.570312 5.6875 C 7.496094 5.660156 7.425781 5.628906 7.355469 5.59375 C 7.289062 5.558594 7.226562 5.511719 7.171875 5.460938 C 7.117188 5.40625 7.070312 5.34375 7.039062 5.269531 C 7.003906 5.199219 6.988281 5.109375 6.988281 5.003906 C 6.988281 4.902344 7.011719 4.804688 7.054688 4.71875 C 7.101562 4.628906 7.164062 4.554688 7.25 4.492188 C 7.335938 4.429688 7.4375 4.382812 7.558594 4.347656 C 7.679688 4.3125 7.816406 4.296875 7.96875 4.296875 C 8.042969 4.296875 8.117188 4.300781 8.1875 4.308594 C 8.257812 4.320312 8.320312 4.332031 8.378906 4.347656 C 8.4375 4.363281 8.484375 4.378906 8.523438 4.394531 C 8.566406 4.414062 8.59375 4.425781 8.609375 4.4375 C 8.628906 4.453125 8.640625 4.464844 8.644531 4.476562 C 8.652344 4.488281 8.660156 4.503906 8.664062 4.519531 C 8.667969 4.539062 8.667969 4.558594 8.671875 4.585938 C 8.675781 4.609375 8.675781 4.640625 8.675781 4.679688 C 8.675781 4.722656 8.675781 4.757812 8.671875 4.785156 C 8.667969 4.816406 8.664062 4.835938 8.660156 4.851562 C 8.652344 4.871094 8.644531 4.882812 8.632812 4.886719 C 8.621094 4.890625 8.609375 4.894531 8.59375 4.894531 C 8.578125 4.894531 8.554688 4.886719 8.519531 4.871094 C 8.484375 4.851562 8.441406 4.832031 8.390625 4.8125 C 8.339844 4.792969 8.28125 4.777344 8.214844 4.757812 C 8.144531 4.742188 8.070312 4.734375 7.984375 4.734375 C 7.921875 4.734375 7.867188 4.738281 7.824219 4.75 C 7.777344 4.761719 7.742188 4.777344 7.714844 4.800781 C 7.683594 4.820312 7.664062 4.84375 7.648438 4.875 C 7.632812 4.902344 7.628906 4.933594 7.628906 4.964844 C 7.628906 5.015625 7.644531 5.058594 7.679688 5.09375 C 7.710938 5.128906 7.757812 5.160156 7.8125 5.183594 C 7.867188 5.210938 7.933594 5.234375 8.003906 5.257812 C 8.074219 5.28125 8.144531 5.308594 8.21875 5.335938 C 8.292969 5.359375 8.363281 5.390625 8.433594 5.429688 C 8.503906 5.464844 8.570312 5.507812 8.625 5.5625 C 8.679688 5.613281 8.726562 5.675781 8.757812 5.75 C 8.792969 5.820312 8.8125 5.910156 8.8125 6.007812 Z M 4.886719 5.6875 C 4.886719 5.78125 4.902344 5.867188 4.925781 5.945312 C 4.949219 6.019531 4.988281 6.085938 5.039062 6.136719 C 5.09375 6.191406 5.160156 6.230469 5.246094 6.257812 C 5.328125 6.289062 5.429688 6.300781 5.546875 6.300781 C 5.664062 6.300781 5.769531 6.292969 5.859375 6.277344 C 5.949219 6.261719 6.027344 6.246094 6.09375 6.226562 C 6.15625 6.207031 6.210938 6.191406 6.253906 6.175781 C 6.296875 6.160156 6.332031 6.152344 6.359375 6.152344 C 6.375 6.152344 6.390625 6.152344 6.402344 6.160156 C 6.410156 6.164062 6.421875 6.175781 6.429688 6.191406 C 6.433594 6.207031 6.441406 6.226562 6.441406 6.253906 C 6.445312 6.28125 6.445312 6.3125 6.445312 6.355469 C 6.445312 6.390625 6.445312 6.421875 6.445312 6.449219 C 6.441406 6.472656 6.4375 6.496094 6.4375 6.511719 C 6.433594 6.53125 6.425781 6.546875 6.417969 6.558594 C 6.414062 6.570312 6.402344 6.582031 6.390625 6.59375 C 6.378906 6.605469 6.347656 6.621094 6.296875 6.640625 C 6.242188 6.660156 6.175781 6.679688 6.097656 6.699219 C 6.015625 6.71875 5.921875 6.734375 5.820312 6.746094 C 5.714844 6.761719 5.601562 6.769531 5.484375 6.769531 C 5.269531 6.769531 5.082031 6.742188 4.921875 6.695312 C 4.761719 6.644531 4.625 6.570312 4.519531 6.472656 C 4.410156 6.371094 4.332031 6.246094 4.277344 6.09375 C 4.226562 5.941406 4.199219 5.761719 4.199219 5.554688 C 4.199219 5.363281 4.226562 5.1875 4.28125 5.027344 C 4.335938 4.871094 4.417969 4.738281 4.523438 4.632812 C 4.628906 4.523438 4.757812 4.4375 4.910156 4.382812 C 5.0625 4.324219 5.234375 4.296875 5.425781 4.296875 C 5.625 4.296875 5.796875 4.324219 5.941406 4.375 C 6.085938 4.429688 6.203125 4.503906 6.292969 4.601562 C 6.382812 4.695312 6.453125 4.8125 6.496094 4.941406 C 6.539062 5.074219 6.558594 5.214844 6.558594 5.371094 L 6.558594 5.46875 C 6.558594 5.542969 6.542969 5.597656 6.503906 5.636719 C 6.46875 5.671875 6.417969 5.6875 6.351562 5.6875 Z M 17.761719 5.507812 C 17.761719 5.695312 17.734375 5.867188 17.679688 6.019531 C 17.625 6.175781 17.542969 6.308594 17.433594 6.417969 C 17.324219 6.53125 17.1875 6.617188 17.023438 6.675781 C 16.855469 6.738281 16.664062 6.769531 16.441406 6.769531 C 16.230469 6.769531 16.042969 6.742188 15.882812 6.6875 C 15.726562 6.632812 15.59375 6.554688 15.492188 6.449219 C 15.386719 6.347656 15.308594 6.222656 15.257812 6.070312 C 15.207031 5.917969 15.183594 5.746094 15.183594 5.554688 C 15.183594 5.367188 15.210938 5.195312 15.265625 5.042969 C 15.320312 4.886719 15.402344 4.753906 15.511719 4.644531 C 15.621094 4.53125 15.757812 4.445312 15.921875 4.386719 C 16.089844 4.324219 16.28125 4.296875 16.5 4.296875 C 16.71875 4.296875 16.90625 4.320312 17.0625 4.375 C 17.21875 4.429688 17.351562 4.507812 17.453125 4.609375 C 17.558594 4.714844 17.636719 4.839844 17.683594 4.992188 C 17.734375 5.140625 17.761719 5.316406 17.761719 5.507812 Z M 3.363281 5.503906 L 3.363281 6.625 C 3.363281 6.640625 3.355469 6.65625 3.34375 6.667969 C 3.332031 6.679688 3.3125 6.691406 3.289062 6.699219 C 3.261719 6.707031 3.222656 6.714844 3.179688 6.71875 C 3.132812 6.722656 3.074219 6.726562 3.007812 6.726562 C 2.9375 6.726562 2.878906 6.722656 2.835938 6.71875 C 2.789062 6.714844 2.753906 6.707031 2.726562 6.699219 C 2.695312 6.691406 2.679688 6.679688 2.667969 6.667969 C 2.65625 6.65625 2.652344 6.640625 2.652344 6.625 L 2.652344 5.503906 L 1.695312 3.773438 C 1.664062 3.710938 1.640625 3.664062 1.628906 3.628906 C 1.621094 3.597656 1.625 3.570312 1.648438 3.554688 C 1.667969 3.539062 1.707031 3.527344 1.761719 3.523438 C 1.816406 3.519531 1.894531 3.515625 1.992188 3.515625 C 2.074219 3.515625 2.140625 3.519531 2.191406 3.519531 C 2.242188 3.523438 2.28125 3.53125 2.308594 3.539062 C 2.335938 3.546875 2.359375 3.558594 2.371094 3.574219 C 2.386719 3.589844 2.398438 3.609375 2.410156 3.632812 L 2.800781 4.414062 C 2.835938 4.488281 2.875 4.566406 2.910156 4.652344 C 2.949219 4.734375 2.984375 4.824219 3.023438 4.914062 L 3.027344 4.914062 C 3.0625 4.828125 3.097656 4.742188 3.132812 4.65625 C 3.167969 4.574219 3.203125 4.492188 3.238281 4.417969 L 3.621094 3.640625 C 3.628906 3.617188 3.640625 3.59375 3.65625 3.578125 C 3.667969 3.5625 3.6875 3.550781 3.714844 3.539062 C 3.742188 3.53125 3.78125 3.523438 3.828125 3.519531 C 3.871094 3.519531 3.933594 3.515625 4.011719 3.515625 C 4.113281 3.515625 4.195312 3.519531 4.25 3.523438 C 4.308594 3.527344 4.347656 3.539062 4.367188 3.554688 C 4.386719 3.570312 4.390625 3.597656 4.382812 3.632812 C 4.371094 3.667969 4.347656 3.710938 4.316406 3.773438 Z M 12.351562 4.242188 C 12.359375 4.359375 12.363281 4.476562 12.367188 4.59375 C 12.371094 4.710938 12.371094 4.832031 12.371094 4.957031 L 12.371094 6.621094 C 12.371094 6.636719 12.367188 6.652344 12.355469 6.664062 C 12.347656 6.679688 12.328125 6.6875 12.304688 6.699219 C 12.28125 6.707031 12.25 6.714844 12.207031 6.71875 C 12.167969 6.722656 12.113281 6.726562 12.046875 6.726562 C 11.984375 6.726562 11.933594 6.722656 11.890625 6.71875 C 11.851562 6.714844 11.820312 6.707031 11.796875 6.699219 C 11.773438 6.6875 11.753906 6.679688 11.746094 6.664062 C 11.738281 6.652344 11.734375 6.636719 11.734375 6.621094 L 11.734375 3.761719 C 11.734375 3.683594 11.757812 3.628906 11.808594 3.589844 C 11.855469 3.550781 11.917969 3.53125 11.988281 3.53125 L 12.367188 3.53125 C 12.4375 3.53125 12.496094 3.535156 12.542969 3.546875 C 12.589844 3.558594 12.628906 3.574219 12.667969 3.601562 C 12.703125 3.625 12.738281 3.660156 12.769531 3.703125 C 12.804688 3.746094 12.835938 3.800781 12.871094 3.863281 L 13.550781 5.027344 C 13.589844 5.097656 13.628906 5.164062 13.667969 5.234375 C 13.707031 5.300781 13.742188 5.371094 13.777344 5.4375 C 13.816406 5.503906 13.851562 5.570312 13.882812 5.636719 C 13.917969 5.703125 13.953125 5.769531 13.984375 5.835938 L 13.988281 5.835938 C 13.980469 5.71875 13.976562 5.601562 13.972656 5.476562 C 13.972656 5.351562 13.96875 5.230469 13.96875 5.117188 L 13.96875 3.625 C 13.96875 3.609375 13.976562 3.59375 13.988281 3.582031 C 13.996094 3.570312 14.015625 3.558594 14.039062 3.546875 C 14.066406 3.539062 14.097656 3.53125 14.140625 3.527344 C 14.179688 3.523438 14.234375 3.519531 14.300781 3.519531 C 14.359375 3.519531 14.410156 3.523438 14.453125 3.527344 C 14.496094 3.53125 14.527344 3.539062 14.546875 3.546875 C 14.570312 3.558594 14.585938 3.570312 14.597656 3.582031 C 14.605469 3.59375 14.609375 3.609375 14.609375 3.625 L 14.609375 6.484375 C 14.609375 6.523438 14.601562 6.558594 14.585938 6.585938 C 14.574219 6.617188 14.554688 6.640625 14.53125 6.660156 C 14.503906 6.679688 14.476562 6.695312 14.445312 6.703125 C 14.410156 6.710938 14.375 6.714844 14.34375 6.714844 L 14.039062 6.714844 C 13.976562 6.714844 13.921875 6.710938 13.878906 6.699219 C 13.832031 6.6875 13.789062 6.667969 13.75 6.636719 C 13.710938 6.605469 13.675781 6.566406 13.640625 6.515625 C 13.601562 6.460938 13.5625 6.394531 13.515625 6.3125 L 12.648438 4.828125 C 12.597656 4.738281 12.546875 4.640625 12.496094 4.539062 C 12.445312 4.4375 12.398438 4.339844 12.355469 4.242188 Z M 17.0625 5.535156 C 17.0625 5.425781 17.054688 5.328125 17.035156 5.234375 C 17.015625 5.144531 16.984375 5.066406 16.9375 5 C 16.894531 4.929688 16.832031 4.878906 16.757812 4.839844 C 16.683594 4.804688 16.589844 4.785156 16.476562 4.785156 C 16.375 4.785156 16.289062 4.800781 16.214844 4.835938 C 16.136719 4.867188 16.074219 4.917969 16.027344 4.984375 C 15.980469 5.046875 15.941406 5.125 15.917969 5.214844 C 15.894531 5.308594 15.882812 5.410156 15.882812 5.527344 C 15.882812 5.636719 15.890625 5.734375 15.910156 5.824219 C 15.929688 5.917969 15.964844 5.996094 16.007812 6.0625 C 16.050781 6.128906 16.109375 6.183594 16.1875 6.21875 C 16.261719 6.253906 16.355469 6.273438 16.464844 6.273438 C 16.570312 6.273438 16.65625 6.257812 16.734375 6.222656 C 16.808594 6.191406 16.871094 6.140625 16.917969 6.078125 C 16.96875 6.011719 17.003906 5.9375 17.027344 5.84375 C 17.050781 5.753906 17.0625 5.652344 17.0625 5.535156 Z M 5.902344 5.289062 C 5.90625 5.117188 5.871094 4.980469 5.789062 4.882812 C 5.707031 4.78125 5.578125 4.734375 5.410156 4.734375 C 5.324219 4.734375 5.246094 4.746094 5.183594 4.777344 C 5.121094 4.808594 5.066406 4.847656 5.023438 4.894531 C 4.980469 4.945312 4.949219 5.003906 4.925781 5.074219 C 4.90625 5.140625 4.890625 5.214844 4.886719 5.289062 Z M 5.902344 5.289062 "/>
</g>
</svg>
