<?xml version="1.0" encoding="UTF-8"?>
<svg xmlns="http://www.w3.org/2000/svg" xmlns:xlink="http://www.w3.org/1999/xlink" width="20pt" height="20pt" viewBox="0 0 20 20" version="1.1">
<g id="surface1">
<path style=" stroke:none;fill-rule:evenodd;fill:rgb(0%,0%,0%);fill-opacity:1;" d="M 11.867188 13.714844 C 8.625 13.71875 5.382812 13.722656 2.140625 13.707031 C 1.292969 13.699219 0.484375 13.15625 0.164062 12.367188 C 0.0585938 12.113281 0.00390625 11.835938 0.00390625 11.5625 C 0 10.421875 -0.00390625 9.285156 0.00390625 8.148438 C 0.0078125 7.308594 0.546875 6.496094 1.339844 6.167969 C 1.597656 6.066406 1.871094 6.011719 2.148438 6.011719 C 7.179688 6.003906 12.207031 6.003906 17.238281 6.011719 C 18.082031 6.015625 18.898438 6.554688 19.222656 7.347656 C 19.328125 7.605469 19.382812 7.878906 19.382812 8.15625 C 19.386719 9.292969 19.390625 10.429688 19.382812 11.566406 C 19.378906 12.132812 19.136719 12.695312 18.730469 13.09375 C 18.753906 13.128906 18.769531 13.167969 18.777344 13.210938 C 18.8125 13.351562 18.769531 13.496094 18.667969 13.597656 L 17.503906 14.757812 L 19.878906 17.121094 C 20.039062 17.28125 20.039062 17.542969 19.878906 17.703125 L 18.132812 19.441406 C 18.050781 19.523438 17.945312 19.5625 17.839844 19.5625 C 17.734375 19.5625 17.628906 19.523438 17.550781 19.441406 L 15.171875 17.078125 L 14.007812 18.238281 C 13.90625 18.339844 13.761719 18.378906 13.621094 18.347656 C 13.484375 18.3125 13.371094 18.210938 13.324219 18.078125 Z M 17.484375 13.441406 L 12.039062 11.632812 L 13.898438 17.1875 L 14.882812 16.207031 C 15.042969 16.046875 15.304688 16.046875 15.464844 16.207031 L 17.839844 18.574219 L 19.003906 17.414062 L 16.628906 15.046875 C 16.46875 14.886719 16.46875 14.625 16.628906 14.464844 L 17.484375 13.617188 Z M 17.761719 12.667969 C 18.039062 12.535156 18.265625 12.304688 18.382812 12.015625 C 18.441406 11.871094 18.46875 11.714844 18.472656 11.5625 C 18.476562 10.425781 18.480469 9.289062 18.472656 8.148438 C 18.464844 7.65625 18.144531 7.179688 17.671875 7.003906 C 17.535156 6.949219 17.386719 6.921875 17.238281 6.921875 C 12.210938 6.898438 7.183594 6.921875 2.15625 6.921875 C 1.664062 6.921875 1.1875 7.238281 1.003906 7.699219 C 0.945312 7.84375 0.914062 8 0.914062 8.152344 C 0.910156 9.292969 0.90625 10.429688 0.914062 11.566406 C 0.921875 12.199219 1.464844 12.789062 2.148438 12.792969 C 5.285156 12.808594 8.425781 12.820312 11.566406 12.816406 L 10.996094 11.113281 C 10.945312 10.96875 10.984375 10.804688 11.09375 10.695312 C 11.207031 10.585938 11.367188 10.546875 11.515625 10.59375 Z M 9.660156 4.726562 C 9.652344 4.75 9.640625 4.765625 9.625 4.78125 C 9.609375 4.792969 9.589844 4.804688 9.5625 4.8125 C 9.539062 4.820312 9.503906 4.828125 9.46875 4.832031 C 9.429688 4.835938 9.378906 4.835938 9.320312 4.835938 C 9.246094 4.835938 9.1875 4.832031 9.140625 4.828125 C 9.09375 4.820312 9.058594 4.808594 9.03125 4.796875 C 9.007812 4.785156 8.996094 4.765625 8.992188 4.746094 C 8.988281 4.726562 8.992188 4.703125 9.003906 4.675781 L 10.613281 0.546875 C 10.621094 0.527344 10.632812 0.507812 10.648438 0.496094 C 10.660156 0.480469 10.679688 0.46875 10.707031 0.460938 C 10.730469 0.453125 10.765625 0.445312 10.804688 0.441406 C 10.84375 0.4375 10.894531 0.4375 10.949219 0.4375 C 11.027344 0.4375 11.085938 0.441406 11.132812 0.445312 C 11.179688 0.453125 11.214844 0.460938 11.238281 0.476562 C 11.261719 0.488281 11.273438 0.503906 11.277344 0.527344 C 11.28125 0.546875 11.277344 0.570312 11.269531 0.597656 Z M 8.8125 3.390625 C 8.8125 3.511719 8.785156 3.621094 8.734375 3.71875 C 8.683594 3.8125 8.609375 3.894531 8.515625 3.957031 C 8.421875 4.019531 8.3125 4.070312 8.183594 4.101562 C 8.058594 4.132812 7.917969 4.148438 7.769531 4.148438 C 7.679688 4.148438 7.59375 4.140625 7.511719 4.128906 C 7.429688 4.117188 7.359375 4.101562 7.292969 4.082031 C 7.226562 4.0625 7.175781 4.046875 7.132812 4.023438 C 7.089844 4.003906 7.058594 3.988281 7.035156 3.96875 C 7.015625 3.953125 7 3.925781 6.992188 3.890625 C 6.980469 3.851562 6.976562 3.796875 6.976562 3.726562 C 6.976562 3.679688 6.976562 3.640625 6.980469 3.609375 C 6.984375 3.582031 6.988281 3.558594 6.996094 3.542969 C 7.003906 3.523438 7.011719 3.511719 7.023438 3.507812 C 7.035156 3.503906 7.046875 3.5 7.0625 3.5 C 7.082031 3.5 7.113281 3.507812 7.152344 3.53125 C 7.191406 3.550781 7.238281 3.574219 7.296875 3.597656 C 7.351562 3.621094 7.421875 3.644531 7.496094 3.667969 C 7.574219 3.6875 7.660156 3.699219 7.757812 3.699219 C 7.816406 3.699219 7.871094 3.691406 7.917969 3.679688 C 7.96875 3.667969 8.007812 3.652344 8.042969 3.632812 C 8.078125 3.609375 8.105469 3.582031 8.125 3.550781 C 8.140625 3.519531 8.148438 3.480469 8.148438 3.4375 C 8.148438 3.390625 8.132812 3.347656 8.101562 3.3125 C 8.066406 3.277344 8.023438 3.246094 7.96875 3.21875 C 7.914062 3.191406 7.851562 3.167969 7.78125 3.144531 C 7.714844 3.121094 7.640625 3.097656 7.570312 3.070312 C 7.496094 3.042969 7.425781 3.007812 7.355469 2.972656 C 7.289062 2.9375 7.226562 2.894531 7.171875 2.839844 C 7.117188 2.789062 7.070312 2.726562 7.039062 2.652344 C 7.003906 2.578125 6.988281 2.488281 6.988281 2.386719 C 6.988281 2.28125 7.011719 2.183594 7.054688 2.097656 C 7.101562 2.007812 7.164062 1.933594 7.25 1.871094 C 7.335938 1.808594 7.4375 1.761719 7.558594 1.726562 C 7.679688 1.691406 7.816406 1.675781 7.96875 1.675781 C 8.042969 1.675781 8.117188 1.679688 8.1875 1.691406 C 8.257812 1.699219 8.320312 1.710938 8.378906 1.726562 C 8.4375 1.742188 8.484375 1.757812 8.523438 1.773438 C 8.566406 1.792969 8.59375 1.808594 8.609375 1.820312 C 8.628906 1.832031 8.640625 1.84375 8.644531 1.855469 C 8.652344 1.867188 8.660156 1.882812 8.664062 1.898438 C 8.667969 1.917969 8.667969 1.9375 8.671875 1.964844 C 8.675781 1.988281 8.675781 2.019531 8.675781 2.058594 C 8.675781 2.101562 8.675781 2.140625 8.671875 2.167969 C 8.667969 2.195312 8.664062 2.21875 8.660156 2.234375 C 8.652344 2.25 8.644531 2.261719 8.632812 2.265625 C 8.621094 2.273438 8.609375 2.273438 8.59375 2.273438 C 8.578125 2.273438 8.554688 2.265625 8.519531 2.25 C 8.484375 2.230469 8.441406 2.214844 8.390625 2.195312 C 8.339844 2.175781 8.28125 2.15625 8.214844 2.140625 C 8.144531 2.121094 8.070312 2.113281 7.984375 2.113281 C 7.921875 2.113281 7.867188 2.117188 7.824219 2.128906 C 7.777344 2.140625 7.742188 2.15625 7.714844 2.179688 C 7.683594 2.199219 7.664062 2.226562 7.648438 2.253906 C 7.632812 2.28125 7.628906 2.3125 7.628906 2.347656 C 7.628906 2.398438 7.644531 2.441406 7.679688 2.472656 C 7.710938 2.507812 7.757812 2.539062 7.8125 2.566406 C 7.867188 2.589844 7.933594 2.617188 8.003906 2.640625 C 8.074219 2.660156 8.144531 2.6875 8.21875 2.714844 C 8.292969 2.742188 8.363281 2.773438 8.433594 2.808594 C 8.503906 2.84375 8.570312 2.890625 8.625 2.941406 C 8.679688 2.992188 8.726562 3.054688 8.757812 3.128906 C 8.792969 3.203125 8.8125 3.289062 8.8125 3.390625 Z M 6.558594 2.847656 C 6.558594 2.921875 6.542969 2.980469 6.503906 3.015625 C 6.46875 3.050781 6.417969 3.070312 6.351562 3.070312 L 4.886719 3.070312 C 4.886719 3.164062 4.902344 3.246094 4.925781 3.324219 C 4.949219 3.398438 4.988281 3.464844 5.039062 3.519531 C 5.09375 3.570312 5.160156 3.613281 5.246094 3.640625 C 5.328125 3.667969 5.429688 3.679688 5.546875 3.679688 C 5.664062 3.679688 5.769531 3.671875 5.859375 3.65625 C 5.949219 3.640625 6.027344 3.625 6.09375 3.605469 C 6.15625 3.585938 6.210938 3.570312 6.253906 3.554688 C 6.296875 3.539062 6.332031 3.53125 6.359375 3.53125 C 6.375 3.53125 6.390625 3.535156 6.402344 3.539062 C 6.410156 3.546875 6.421875 3.554688 6.429688 3.570312 C 6.433594 3.585938 6.441406 3.605469 6.441406 3.632812 C 6.445312 3.660156 6.445312 3.695312 6.445312 3.734375 C 6.445312 3.769531 6.445312 3.800781 6.445312 3.828125 C 6.441406 3.851562 6.4375 3.875 6.4375 3.894531 C 6.433594 3.910156 6.425781 3.925781 6.417969 3.9375 C 6.414062 3.949219 6.402344 3.960938 6.390625 3.972656 C 6.378906 3.984375 6.347656 4 6.296875 4.019531 C 6.242188 4.039062 6.175781 4.058594 6.097656 4.078125 C 6.015625 4.097656 5.921875 4.113281 5.820312 4.128906 C 5.714844 4.140625 5.601562 4.148438 5.484375 4.148438 C 5.269531 4.148438 5.082031 4.125 4.921875 4.074219 C 4.761719 4.023438 4.625 3.949219 4.519531 3.851562 C 4.410156 3.75 4.332031 3.625 4.277344 3.472656 C 4.226562 3.320312 4.199219 3.140625 4.199219 2.9375 C 4.199219 2.742188 4.226562 2.566406 4.28125 2.410156 C 4.335938 2.253906 4.417969 2.121094 4.523438 2.011719 C 4.628906 1.902344 4.757812 1.820312 4.910156 1.761719 C 5.0625 1.703125 5.234375 1.675781 5.425781 1.675781 C 5.625 1.675781 5.796875 1.703125 5.941406 1.757812 C 6.085938 1.8125 6.203125 1.886719 6.292969 1.980469 C 6.382812 2.078125 6.453125 2.191406 6.496094 2.320312 C 6.539062 2.453125 6.558594 2.59375 6.558594 2.75 Z M 17.761719 2.890625 C 17.761719 3.078125 17.734375 3.246094 17.679688 3.402344 C 17.625 3.554688 17.542969 3.6875 17.433594 3.800781 C 17.324219 3.910156 17.1875 3.996094 17.023438 4.058594 C 16.855469 4.117188 16.664062 4.148438 16.441406 4.148438 C 16.230469 4.148438 16.042969 4.121094 15.882812 4.066406 C 15.726562 4.011719 15.59375 3.933594 15.492188 3.832031 C 15.386719 3.726562 15.308594 3.601562 15.257812 3.449219 C 15.207031 3.300781 15.183594 3.128906 15.183594 2.933594 C 15.183594 2.746094 15.210938 2.578125 15.265625 2.421875 C 15.320312 2.265625 15.402344 2.132812 15.511719 2.023438 C 15.621094 1.914062 15.757812 1.828125 15.921875 1.765625 C 16.089844 1.707031 16.28125 1.675781 16.5 1.675781 C 16.71875 1.675781 16.90625 1.703125 17.0625 1.753906 C 17.21875 1.808594 17.351562 1.886719 17.453125 1.988281 C 17.558594 2.09375 17.636719 2.21875 17.683594 2.371094 C 17.734375 2.523438 17.761719 2.695312 17.761719 2.890625 Z M 14.34375 4.097656 L 14.039062 4.097656 C 13.976562 4.097656 13.921875 4.089844 13.878906 4.078125 C 13.832031 4.066406 13.789062 4.046875 13.75 4.015625 C 13.710938 3.988281 13.675781 3.945312 13.640625 3.894531 C 13.601562 3.84375 13.5625 3.777344 13.515625 3.695312 L 12.648438 2.207031 C 12.597656 2.117188 12.546875 2.023438 12.496094 1.921875 C 12.445312 1.816406 12.398438 1.71875 12.355469 1.621094 L 12.351562 1.621094 C 12.359375 1.738281 12.363281 1.855469 12.367188 1.972656 C 12.371094 2.089844 12.371094 2.210938 12.371094 2.335938 L 12.371094 4 C 12.371094 4.015625 12.367188 4.03125 12.355469 4.046875 C 12.347656 4.058594 12.328125 4.070312 12.304688 4.078125 C 12.28125 4.085938 12.25 4.09375 12.207031 4.097656 C 12.167969 4.105469 12.113281 4.105469 12.046875 4.105469 C 11.984375 4.105469 11.933594 4.105469 11.890625 4.097656 C 11.851562 4.09375 11.820312 4.085938 11.796875 4.078125 C 11.773438 4.070312 11.753906 4.058594 11.746094 4.046875 C 11.738281 4.03125 11.734375 4.015625 11.734375 4 L 11.734375 1.140625 C 11.734375 1.066406 11.757812 1.007812 11.808594 0.96875 C 11.855469 0.929688 11.917969 0.910156 11.988281 0.910156 L 12.367188 0.910156 C 12.4375 0.910156 12.496094 0.917969 12.542969 0.925781 C 12.589844 0.9375 12.628906 0.957031 12.667969 0.980469 C 12.703125 1.003906 12.738281 1.039062 12.769531 1.082031 C 12.804688 1.125 12.835938 1.179688 12.871094 1.242188 L 13.550781 2.40625 C 13.589844 2.476562 13.628906 2.546875 13.667969 2.613281 C 13.707031 2.679688 13.742188 2.75 13.777344 2.816406 C 13.816406 2.886719 13.851562 2.953125 13.882812 3.015625 C 13.917969 3.082031 13.953125 3.148438 13.984375 3.214844 L 13.988281 3.214844 C 13.980469 3.097656 13.976562 2.980469 13.972656 2.855469 C 13.972656 2.730469 13.96875 2.613281 13.96875 2.5 L 13.96875 1.007812 C 13.96875 0.992188 13.976562 0.976562 13.988281 0.960938 C 13.996094 0.949219 14.015625 0.9375 14.039062 0.929688 C 14.066406 0.917969 14.097656 0.910156 14.140625 0.90625 C 14.179688 0.902344 14.234375 0.902344 14.300781 0.902344 C 14.359375 0.902344 14.410156 0.902344 14.453125 0.90625 C 14.496094 0.910156 14.527344 0.917969 14.546875 0.929688 C 14.570312 0.9375 14.585938 0.949219 14.597656 0.960938 C 14.605469 0.976562 14.609375 0.992188 14.609375 1.007812 L 14.609375 3.867188 C 14.609375 3.902344 14.601562 3.9375 14.585938 3.964844 C 14.574219 3.996094 14.554688 4.019531 14.53125 4.039062 C 14.503906 4.058594 14.476562 4.074219 14.445312 4.082031 C 14.410156 4.09375 14.375 4.097656 14.34375 4.097656 Z M 3.363281 2.882812 L 3.363281 4.003906 C 3.363281 4.019531 3.355469 4.035156 3.34375 4.046875 C 3.332031 4.0625 3.3125 4.070312 3.289062 4.078125 C 3.261719 4.085938 3.222656 4.09375 3.179688 4.097656 C 3.132812 4.105469 3.074219 4.105469 3.007812 4.105469 C 2.9375 4.105469 2.878906 4.105469 2.835938 4.097656 C 2.789062 4.09375 2.753906 4.085938 2.726562 4.078125 C 2.695312 4.070312 2.679688 4.0625 2.667969 4.046875 C 2.65625 4.035156 2.652344 4.019531 2.652344 4.003906 L 2.652344 2.882812 L 1.695312 1.152344 C 1.664062 1.089844 1.640625 1.042969 1.628906 1.011719 C 1.621094 0.976562 1.625 0.953125 1.648438 0.933594 C 1.667969 0.917969 1.707031 0.90625 1.761719 0.902344 C 1.816406 0.898438 1.894531 0.894531 1.992188 0.894531 C 2.074219 0.894531 2.140625 0.898438 2.191406 0.902344 C 2.242188 0.90625 2.28125 0.910156 2.308594 0.917969 C 2.335938 0.929688 2.359375 0.941406 2.371094 0.957031 C 2.386719 0.96875 2.398438 0.988281 2.410156 1.011719 L 2.800781 1.792969 C 2.835938 1.867188 2.875 1.949219 2.910156 2.03125 C 2.949219 2.117188 2.984375 2.203125 3.023438 2.292969 L 3.027344 2.292969 C 3.0625 2.207031 3.097656 2.121094 3.132812 2.035156 C 3.167969 1.953125 3.203125 1.875 3.238281 1.796875 L 3.621094 1.023438 C 3.628906 0.996094 3.640625 0.972656 3.65625 0.957031 C 3.667969 0.941406 3.6875 0.929688 3.714844 0.921875 C 3.742188 0.910156 3.78125 0.90625 3.828125 0.902344 C 3.871094 0.898438 3.933594 0.894531 4.011719 0.894531 C 4.113281 0.894531 4.195312 0.898438 4.25 0.902344 C 4.308594 0.90625 4.347656 0.917969 4.367188 0.933594 C 4.386719 0.953125 4.390625 0.976562 4.382812 1.011719 C 4.371094 1.046875 4.347656 1.09375 4.316406 1.152344 Z M 17.0625 2.914062 C 17.0625 2.804688 17.054688 2.707031 17.035156 2.617188 C 17.015625 2.523438 16.984375 2.445312 16.9375 2.378906 C 16.894531 2.3125 16.832031 2.257812 16.757812 2.222656 C 16.683594 2.183594 16.589844 2.164062 16.476562 2.164062 C 16.375 2.164062 16.289062 2.179688 16.214844 2.214844 C 16.136719 2.25 16.074219 2.296875 16.027344 2.363281 C 15.980469 2.425781 15.941406 2.503906 15.917969 2.597656 C 15.894531 2.6875 15.882812 2.789062 15.882812 2.90625 C 15.882812 3.015625 15.890625 3.113281 15.910156 3.207031 C 15.929688 3.296875 15.964844 3.375 16.007812 3.441406 C 16.050781 3.511719 16.109375 3.5625 16.1875 3.597656 C 16.261719 3.636719 16.355469 3.652344 16.464844 3.652344 C 16.570312 3.652344 16.65625 3.636719 16.734375 3.605469 C 16.808594 3.570312 16.871094 3.523438 16.917969 3.457031 C 16.96875 3.394531 17.003906 3.316406 17.027344 3.226562 C 17.050781 3.132812 17.0625 3.03125 17.0625 2.914062 Z M 5.902344 2.671875 C 5.90625 2.496094 5.871094 2.359375 5.789062 2.261719 C 5.707031 2.164062 5.578125 2.113281 5.410156 2.113281 C 5.324219 2.113281 5.246094 2.128906 5.183594 2.15625 C 5.121094 2.1875 5.066406 2.226562 5.023438 2.277344 C 4.980469 2.328125 4.949219 2.386719 4.925781 2.453125 C 4.90625 2.519531 4.890625 2.59375 4.886719 2.671875 Z M 5.902344 2.671875 "/>
</g>
</svg>
