<?xml version="1.0" encoding="UTF-8"?>
<svg xmlns="http://www.w3.org/2000/svg" xmlns:xlink="http://www.w3.org/1999/xlink" width="20pt" height="20pt" viewBox="0 0 20 20" version="1.1">
<g id="surface1">
<path style=" stroke:none;fill-rule:evenodd;fill:rgb(0%,0%,0%);fill-opacity:1;" d="M 9.257812 18 L 8.121094 18.632812 L 8.117188 18.632812 C 8.058594 18.664062 7.988281 18.675781 7.921875 18.664062 C 7.910156 18.664062 7.902344 18.660156 7.890625 18.660156 L 7.886719 18.65625 L 7.875 18.652344 C 7.855469 18.644531 7.839844 18.636719 7.820312 18.632812 L 0.160156 14.40625 C 0.132812 14.382812 0.0976562 14.363281 0.0742188 14.335938 C 0.0078125 14.261719 0.015625 14.230469 0 14.136719 L 0.0195312 5.84375 L 0.0234375 5.835938 C 0.0234375 5.8125 0.0273438 5.785156 0.03125 5.757812 C 0.0546875 5.683594 0.0742188 5.640625 0.179688 5.574219 L 7.820312 1.371094 C 7.859375 1.351562 7.875 1.332031 7.976562 1.332031 C 8.007812 1.328125 8.019531 1.332031 8.035156 1.332031 C 8.089844 1.339844 8.101562 1.347656 8.152344 1.371094 L 12.308594 3.710938 L 12.152344 3.390625 C 11.980469 3.039062 12.117188 2.621094 12.460938 2.4375 L 13.082031 2.109375 C 13.148438 2.074219 13.195312 2.011719 13.207031 1.9375 L 13.328125 1.246094 C 13.394531 0.863281 13.75 0.605469 14.136719 0.660156 L 14.832031 0.757812 C 14.90625 0.769531 14.980469 0.742188 15.035156 0.691406 L 15.539062 0.203125 C 15.820312 -0.0664062 16.257812 -0.0664062 16.539062 0.203125 L 17.042969 0.691406 C 17.097656 0.742188 17.171875 0.769531 17.246094 0.757812 L 17.941406 0.660156 C 18.328125 0.605469 18.683594 0.863281 18.75 1.246094 L 18.871094 1.9375 C 18.886719 2.011719 18.929688 2.074219 18.996094 2.109375 L 19.617188 2.4375 C 19.960938 2.621094 20.097656 3.039062 19.925781 3.390625 L 19.617188 4.019531 C 19.585938 4.089844 19.585938 4.167969 19.617188 4.234375 L 19.925781 4.863281 C 20.097656 5.214844 19.960938 5.632812 19.617188 5.816406 L 18.996094 6.144531 C 18.929688 6.179688 18.886719 6.242188 18.871094 6.316406 L 18.75 7.007812 C 18.683594 7.390625 18.328125 7.652344 17.941406 7.597656 L 17.246094 7.496094 C 17.171875 7.488281 17.097656 7.511719 17.042969 7.5625 L 16.539062 8.050781 C 16.398438 8.1875 16.21875 8.253906 16.039062 8.253906 C 16 8.253906 15.960938 8.25 15.921875 8.246094 L 15.921875 12.355469 C 16.113281 12.382812 16.292969 12.464844 16.4375 12.601562 L 17.304688 13.433594 C 17.808594 13.433594 18.3125 13.382812 18.773438 13.554688 C 19.488281 13.816406 20.003906 14.535156 20.011719 15.316406 C 20.011719 16.25 20.011719 17.183594 20.011719 18.117188 C 20 19.089844 19.164062 19.988281 18.125 20 C 15.796875 20.007812 13.46875 20.007812 11.140625 20 C 10.1875 19.992188 9.304688 19.191406 9.257812 18.1875 C 9.257812 18.164062 9.257812 18.140625 9.257812 18.117188 C 9.257812 18.078125 9.257812 18.039062 9.257812 18 Z M 13.414062 12.847656 C 13.316406 12.851562 13.222656 12.882812 13.148438 12.945312 L 12.109375 13.828125 C 12.035156 13.875 12.035156 13.875 11.949219 13.890625 C 11.527344 13.890625 11.089844 13.835938 10.714844 13.960938 C 10.164062 14.140625 9.761719 14.6875 9.757812 15.277344 C 9.753906 16.222656 9.753906 17.167969 9.757812 18.113281 C 9.761719 18.832031 10.378906 19.492188 11.144531 19.5 C 13.46875 19.507812 15.796875 19.507812 18.125 19.5 C 18.84375 19.492188 19.503906 18.878906 19.511719 18.113281 C 19.511719 17.183594 19.511719 16.25 19.511719 15.320312 C 19.503906 14.597656 18.867188 13.9375 18.113281 13.933594 L 17.203125 13.933594 C 17.109375 13.914062 17.109375 13.914062 17.027344 13.863281 C 16.714844 13.5625 16.402344 13.257812 16.085938 12.960938 C 16.011719 12.890625 15.914062 12.851562 15.8125 12.847656 C 15.011719 12.84375 14.214844 12.847656 13.414062 12.847656 Z M 14.640625 14.652344 C 15.40625 14.660156 16.15625 15.140625 16.445312 15.84375 C 16.746094 16.578125 16.507812 17.492188 15.867188 18 C 15.070312 18.632812 13.773438 18.535156 13.101562 17.71875 C 12.675781 17.207031 12.558594 16.460938 12.808594 15.84375 C 13.097656 15.140625 13.839844 14.660156 14.613281 14.652344 C 14.621094 14.652344 14.632812 14.652344 14.640625 14.652344 Z M 14.617188 15.152344 C 13.90625 15.15625 13.226562 15.730469 13.175781 16.441406 C 13.121094 17.199219 13.792969 17.921875 14.617188 17.929688 C 15.265625 17.933594 15.898438 17.476562 16.046875 16.84375 C 16.148438 16.417969 16.015625 15.945312 15.71875 15.621094 C 15.441406 15.320312 15.039062 15.148438 14.617188 15.152344 Z M 0.617188 13.953125 L 7.664062 17.839844 L 7.664062 10.175781 L 0.636719 6.363281 C 0.628906 8.894531 0.625 11.421875 0.617188 13.953125 Z M 15.304688 12.347656 L 15.304688 7.824219 L 15.035156 7.5625 C 14.980469 7.511719 14.90625 7.488281 14.832031 7.496094 L 14.136719 7.597656 C 14.101562 7.601562 14.070312 7.601562 14.035156 7.601562 C 13.824219 7.601562 13.628906 7.511719 13.496094 7.359375 L 8.277344 10.230469 L 8.277344 17.835938 L 9.253906 17.296875 C 9.253906 16.621094 9.253906 15.949219 9.257812 15.273438 C 9.265625 14.296875 10.097656 13.394531 11.152344 13.390625 L 11.855469 13.390625 L 12.824219 12.566406 C 12.859375 12.535156 12.867188 12.53125 12.886719 12.515625 C 13.035156 12.410156 13.21875 12.351562 13.402344 12.347656 C 14.035156 12.34375 14.667969 12.34375 15.304688 12.347656 Z M 18.492188 15.261719 L 17.570312 15.261719 C 17.386719 15.257812 17.253906 15.027344 17.367188 14.867188 C 17.414062 14.804688 17.492188 14.761719 17.570312 14.761719 C 17.882812 14.761719 18.191406 14.757812 18.503906 14.761719 C 18.71875 14.773438 18.832031 15.132812 18.59375 15.242188 C 18.5625 15.253906 18.527344 15.261719 18.492188 15.261719 Z M 12.375 4.410156 L 11.800781 4.089844 L 4.820312 7.929688 L 8.023438 9.667969 L 13.289062 6.773438 L 13.207031 6.316406 C 13.195312 6.242188 13.148438 6.179688 13.082031 6.144531 L 12.460938 5.816406 C 12.117188 5.632812 11.980469 5.214844 12.152344 4.863281 Z M 19.394531 5.394531 L 18.773438 5.722656 C 18.578125 5.828125 18.441406 6.015625 18.402344 6.234375 L 18.28125 6.925781 C 18.257812 7.054688 18.140625 7.144531 18.007812 7.125 L 17.3125 7.027344 C 17.09375 6.996094 16.875 7.066406 16.710938 7.222656 L 16.207031 7.707031 C 16.113281 7.800781 15.964844 7.800781 15.871094 7.707031 L 15.367188 7.222656 C 15.230469 7.089844 15.054688 7.019531 14.867188 7.019531 C 14.835938 7.019531 14.800781 7.019531 14.765625 7.027344 L 14.070312 7.125 C 13.941406 7.144531 13.820312 7.054688 13.796875 6.925781 L 13.675781 6.234375 C 13.636719 6.015625 13.503906 5.828125 13.304688 5.722656 L 12.6875 5.394531 C 12.570312 5.332031 12.523438 5.191406 12.582031 5.074219 L 12.890625 4.445312 C 12.988281 4.242188 12.988281 4.011719 12.890625 3.8125 L 12.582031 3.179688 C 12.523438 3.0625 12.570312 2.921875 12.6875 2.859375 L 13.304688 2.53125 C 13.503906 2.425781 13.636719 2.238281 13.675781 2.019531 L 13.796875 1.328125 C 13.820312 1.199219 13.941406 1.113281 14.070312 1.128906 L 14.765625 1.226562 C 14.988281 1.257812 15.207031 1.1875 15.367188 1.03125 L 15.871094 0.546875 C 15.964844 0.453125 16.113281 0.453125 16.207031 0.546875 L 16.710938 1.03125 C 16.875 1.1875 17.09375 1.257812 17.3125 1.226562 L 18.007812 1.128906 C 18.136719 1.113281 18.257812 1.199219 18.28125 1.328125 L 18.402344 2.019531 C 18.441406 2.238281 18.578125 2.425781 18.773438 2.53125 L 19.394531 2.859375 C 19.511719 2.921875 19.554688 3.0625 19.5 3.179688 L 19.191406 3.8125 C 19.09375 4.011719 19.09375 4.242188 19.191406 4.445312 L 19.5 5.074219 C 19.554688 5.191406 19.511719 5.332031 19.394531 5.394531 Z M 0.972656 5.84375 L 4.175781 7.582031 L 11.160156 3.738281 L 7.984375 1.984375 Z M 16.992188 4.523438 C 16.511719 4.523438 16.117188 4.914062 16.117188 5.398438 C 16.117188 5.878906 16.511719 6.269531 16.992188 6.269531 C 17.472656 6.269531 17.863281 5.878906 17.863281 5.398438 C 17.863281 4.914062 17.472656 4.523438 16.992188 4.523438 Z M 17.777344 2.386719 C 17.6875 2.296875 17.535156 2.296875 17.441406 2.386719 L 14.300781 5.53125 C 14.207031 5.621094 14.207031 5.773438 14.300781 5.867188 C 14.347656 5.914062 14.40625 5.9375 14.46875 5.9375 C 14.53125 5.9375 14.589844 5.914062 14.636719 5.867188 L 17.777344 2.726562 C 17.871094 2.632812 17.871094 2.480469 17.777344 2.386719 Z M 16.992188 5.792969 C 16.773438 5.792969 16.59375 5.617188 16.59375 5.398438 C 16.59375 5.179688 16.773438 5 16.992188 5 C 17.210938 5 17.386719 5.179688 17.386719 5.398438 C 17.386719 5.617188 17.210938 5.792969 16.992188 5.792969 Z M 15.085938 1.984375 C 14.605469 1.984375 14.214844 2.375 14.214844 2.859375 C 14.214844 3.339844 14.605469 3.730469 15.085938 3.730469 C 15.570312 3.730469 15.960938 3.339844 15.960938 2.859375 C 15.960938 2.375 15.570312 1.984375 15.085938 1.984375 Z M 15.085938 3.253906 C 14.867188 3.253906 14.691406 3.078125 14.691406 2.859375 C 14.691406 2.640625 14.867188 2.460938 15.085938 2.460938 C 15.304688 2.460938 15.484375 2.640625 15.484375 2.859375 C 15.484375 3.078125 15.304688 3.253906 15.085938 3.253906 Z M 15.085938 3.253906 "/>
</g>
</svg>
